<?xml version="1.0" encoding="UTF-8"?>
<svg version="1.1" xmlns="http://www.w3.org/2000/svg" width="48" height="48">
<path d="M0 0 C0.66 0 1.32 0 2 0 C2.28230469 0.84304687 2.56460937 1.68609375 2.85546875 2.5546875 C4.28663258 6.12210467 5.62222445 8.96759708 8 12 C12.32635268 13.63200493 16.39719421 13.97268365 21 14 C21 18 21 18 19.5390625 19.921875 C18.90742187 20.52515625 18.27578125 21.1284375 17.625 21.75 C16.99851563 22.36359375 16.37203125 22.9771875 15.7265625 23.609375 C14 25 14 25 12 25 C12.144375 25.58007812 12.28875 26.16015625 12.4375 26.7578125 C13.50889428 31.26659675 14.23945936 35.33054247 14 40 C10.74687642 38.9930808 7.95249283 37.97228748 5 36.25 C2.04986182 34.69132775 2.04986182 34.69132775 -1.0625 35.625 C-4.01148864 36.94220525 -4.01148864 36.94220525 -6.6875 38.625 C-9 40 -9 40 -12 40 C-12.22577402 34.5814234 -11.46670113 30.22512279 -10 25 C-10.53625 24.79375 -11.0725 24.5875 -11.625 24.375 C-15.0017654 22.42003056 -17.30474839 19.81776305 -20 17 C-19.505 15.515 -19.505 15.515 -19 14 C-18.13117187 13.99484375 -17.26234375 13.9896875 -16.3671875 13.984375 C-12.58485759 13.73052736 -9.55671761 13.34167995 -6 12 C-3.10074829 8.30255288 -1.48550577 4.43616793 0 0 Z " fill="#FCC814" transform="translate(23,4)"/>
<path d="M0 0 C0.66 0 1.32 0 2 0 C2.83819158 1.62249941 3.6704116 3.24808497 4.5 4.875 C4.9640625 5.77992187 5.428125 6.68484375 5.90625 7.6171875 C7 10 7 10 7 12 C6.01 11.67 5.02 11.34 4 11 C2.8125 7.4375 2.8125 7.4375 2 4 C1.34 4 0.68 4 0 4 C-0.33 7.3 -0.66 10.6 -1 14 C-10.57142857 17.42857143 -10.57142857 17.42857143 -15 17 C-14.0409375 18.423125 -14.0409375 18.423125 -13.0625 19.875 C-11 23 -11 23 -10 25 C-14.29238623 23.34908222 -16.8793915 20.26245434 -20 17 C-19.505 15.515 -19.505 15.515 -19 14 C-18.13117187 13.99484375 -17.26234375 13.9896875 -16.3671875 13.984375 C-12.58485759 13.73052736 -9.55671761 13.34167995 -6 12 C-3.10074829 8.30255288 -1.48550577 4.43616793 0 0 Z " fill="#F9DC62" transform="translate(23,4)"/>
<path d="M0 0 C4.62 0.66 9.24 1.32 14 2 C14 6 14 6 12.5390625 7.921875 C11.90742187 8.52515625 11.27578125 9.1284375 10.625 9.75 C9.68527344 10.67039062 9.68527344 10.67039062 8.7265625 11.609375 C7 13 7 13 5 13 C5.375 10.0625 5.375 10.0625 6 7 C6.66 6.67 7.32 6.34 8 6 C8 5.34 8 4.68 8 4 C5.36 3.67 2.72 3.34 0 3 C0 2.01 0 1.02 0 0 Z " fill="#F7D359" transform="translate(30,16)"/>
<path d="M0 0 C0.33 0 0.66 0 1 0 C1.08159574 4.16138263 0.98248524 7.9472484 0 12 C0.99 12 1.98 12 3 12 C3 11.34 3 10.68 3 10 C4.65 10 6.3 10 8 10 C1.40909091 15 1.40909091 15 -2 15 C-2.22577402 9.5814234 -1.46670113 5.22512279 0 0 Z " fill="#F4D461" transform="translate(13,29)"/>
<path d="M0 0 C1.91302307 3.26613695 2.35674661 5.99445248 2.625 9.75 C2.69976562 10.73484375 2.77453125 11.7196875 2.8515625 12.734375 C2.92503906 13.85585938 2.92503906 13.85585938 3 15 C-2.75 13.25 -2.75 13.25 -5 11 C-2.03 11.495 -2.03 11.495 1 12 C0.835 11.319375 0.67 10.63875 0.5 9.9375 C-0.07089059 6.5835178 -0.06659023 3.39610195 0 0 Z " fill="#F1CB58" transform="translate(34,29)"/>
<path d="M0 0 C2.64 0 5.28 0 8 0 C7.34 0.66 6.68 1.32 6 2 C5.01 2 4.02 2 3 2 C2.67 3.32 2.34 4.64 2 6 C1.01 5.01 0.02 4.02 -1 3 C-0.67 2.01 -0.34 1.02 0 0 Z " fill="#F7DD6C" transform="translate(4,18)"/>
</svg>
